HIERARCHY
ROOT Hips
{
	OFFSET -0.179506 -22.333345 2.821913
	CHANNELS 6 Xposition Yposition Zposition Zrotation Yrotation Xrotation 
	JOINT LeftUpLeg
	{
		OFFSET 6.951974 -9.140623 -0.681533
		CHANNELS 3 Zrotation Yrotation Xrotation
		JOINT LeftLeg
		{
			OFFSET 3.427654 -37.519855 -0.449580
			CHANNELS 3 Zrotation Yrotation Xrotation
			JOINT LeftFoot
			{
				OFFSET -1.359570 -39.796059 -4.369333
				CHANNELS 3 Zrotation Yrotation Xrotation
				JOINT LeftToe
				{
					OFFSET 2.635814 -5.579078 11.928840
					CHANNELS 3 Zrotation Yrotation Xrotation
					End Site
					{
						OFFSET 0.000000 0.000000 0.000000
					}
				}
			}
		}
	}
	JOINT RightUpLeg
	{
		OFFSET -6.767048 -9.052170 -0.431982
		CHANNELS 3 Zrotation Yrotation Xrotation
		JOINT RightLeg
		{
			OFFSET -3.829005 -38.256897 -0.885003
			CHANNELS 3 Zrotation Yrotation Xrotation
			JOINT RightFoot
			{
				OFFSET 1.577377 -39.841461 -4.231180
				CHANNELS 3 Zrotation Yrotation Xrotation
				JOINT RightToe
				{
					OFFSET -2.537174 -4.814398 12.334795
					CHANNELS 3 Zrotation Yrotation Xrotation
					End Site
					{
						OFFSET 0.000000 0.000000 0.000000
					}
				}
			}
		}
	}
	JOINT Spine
	{
		OFFSET -0.253288 10.896323 -2.669631
		CHANNELS 3 Zrotation Yrotation Xrotation
		JOINT Spine1
		{
			OFFSET 0.548704 13.518043 0.109247
			CHANNELS 3 Zrotation Yrotation Xrotation
			JOINT Spine2
			{
				OFFSET 0.145701 5.292222 2.542457
				CHANNELS 3 Zrotation Yrotation Xrotation
				JOINT Neck
				{
					OFFSET -0.277840 21.387037 -4.285703
					CHANNELS 3 Zrotation Yrotation Xrotation
					JOINT Head
					{
						OFFSET 0.515184 6.496960 5.134897
						CHANNELS 3 Zrotation Yrotation Xrotation
						End Site
						{
							OFFSET 0.000000 0.000000 0.000000
						}
					}
				}
				JOINT LeftShoulder
				{
					OFFSET 7.884473 12.174932 -3.408961
					CHANNELS 3 Zrotation Yrotation Xrotation
					JOINT LeftArm
					{
						OFFSET 9.097692 3.046888 -0.886815
						CHANNELS 3 Zrotation Yrotation Xrotation
						JOINT LeftForeArm
						{
							OFFSET 25.961220 -1.277207 -2.745643
							CHANNELS 3 Zrotation Yrotation Xrotation
							JOINT LeftHand
							{
								OFFSET 24.923361 0.898606 -0.117091
								CHANNELS 3 Zrotation Yrotation Xrotation
								End Site
								{
									OFFSET 0.000000 0.000000 0.000000
								}
							}
						}
					}
				}
				JOINT RightShoulder
				{
					OFFSET -8.175920 11.883285 -3.861528
					CHANNELS 3 Zrotation Yrotation Xrotation
					JOINT RightArm
					{
						OFFSET -9.601238 3.255117 -0.914307
						CHANNELS 3 Zrotation Yrotation Xrotation
						JOINT RightForeArm
						{
							OFFSET -25.374195 -1.332924 -2.140099
							CHANNELS 3 Zrotation Yrotation Xrotation
							JOINT RightHand
							{
								OFFSET -25.529810 0.777228 -0.555919
								CHANNELS 3 Zrotation Yrotation Xrotation
								End Site
								{
									OFFSET 0.000000 0.000000 0.000000
								}
							}
						}
					}
				}
			}
		}
	}
}
MOTION
Frames: 17
Frame Time: 0.033333
-34.314602 32.088352 98.431465 -159.602928 -1.642680 86.233146 3.531852 10.570032 8.877339 -3.053114 15.964523 3.458927 0.846232 19.547877 -9.525575 nan nan nan -1.573242 -8.074483 -3.228253 5.068998 -16.624149 11.116846 2.137060 -10.469802 -5.866977 nan nan nan 0.859735 1.339638 7.111079 0.915933 -0.070395 7.065764 -0.781430 0.199415 -1.364708 -0.185493 -7.115249 3.912732 5.275244 -16.909798 -1.905700 -27.209236 -0.485398 2.835611 -50.967339 -9.216446 6.991016 10.337166 -21.948594 -10.516975 -1.451899 -18.818671 -5.121013 30.480260 7.806493 4.124178 56.440803 1.170873 7.346852 -18.454402 10.143145 -19.587624 1.176726 10.749968 -11.114436 
-34.276363 32.210293 98.472672 -160.892618 -1.640697 86.256769 3.448825 10.508267 8.605038 -2.802627 16.625356 4.461982 0.688233 20.048714 -9.851083 nan nan nan -1.325788 -7.639951 -2.803084 5.052672 -16.029493 10.286838 2.122970 -10.176605 -5.566832 nan nan nan 1.093669 1.266283 7.091927 0.912560 -0.186351 7.264127 -0.819412 0.296881 -1.486235 -0.309999 -6.902510 3.865651 5.275701 -16.602577 -2.050154 -27.340807 -0.367070 2.707464 -51.346019 -9.132919 7.013626 10.651363 -22.406936 -10.747799 -1.612988 -18.691312 -4.816480 30.389843 7.871414 4.118337 56.440930 1.324585 7.300156 -18.312045 10.070504 -19.667084 1.267132 10.804684 -10.770072 
-34.242565 32.324200 98.520180 -162.106953 -1.609721 86.316770 3.471172 10.429779 8.206030 -2.603669 17.204615 5.678215 0.506710 20.487149 -10.249697 nan nan nan -1.058964 -7.347713 -2.455079 5.048747 -15.436186 9.489260 2.077334 -9.908326 -5.246971 nan nan nan 1.365034 1.189105 7.123326 0.901380 -0.335531 7.301345 -0.809647 0.340812 -1.544702 -0.452464 -6.800973 3.798960 5.278859 -16.227431 -2.136545 -27.551853 -0.212128 2.540370 -51.766529 -9.035591 7.122596 11.123336 -22.795732 -10.905768 -1.840486 -18.609136 -4.900852 30.376026 7.943044 4.240149 56.376554 1.397395 7.261146 -18.300208 10.237564 -19.685287 1.266297 10.908394 -10.628008 
-34.223679 32.436440 98.562813 -163.280882 -1.524990 86.359824 3.605266 10.402300 7.757333 -2.358361 17.677477 7.067861 0.223189 20.874300 -10.612981 nan nan nan -0.798585 -7.049345 -2.134667 5.099025 -14.876577 8.794697 1.976078 -9.641404 -4.949617 nan nan nan 1.689436 1.093687 7.104322 0.941342 -0.423647 7.445438 -0.854242 0.386393 -1.579167 -0.509783 -6.818748 3.656440 5.226078 -15.797821 -2.266355 -27.791943 -0.159377 2.437444 -52.145083 -9.003243 7.197904 11.543212 -23.219195 -11.149069 -2.041342 -18.536994 -5.202588 30.339273 7.963258 4.380537 56.309186 1.477070 7.168394 -18.257424 10.596402 -19.792070 1.409891 11.039401 -10.748376 
-34.193554 32.574753 98.611153 -164.435918 -1.440689 86.329085 3.761466 10.340267 7.514444 -2.079033 18.129891 8.253408 -0.151378 21.225147 -10.801847 nan nan nan -0.523602 -6.715978 -1.668769 5.084941 -14.406015 8.065747 1.883936 -9.321167 -4.673927 nan nan nan 1.970378 1.052009 7.099077 1.014550 -0.494680 7.660988 -0.919104 0.431956 -1.653932 -0.514877 -6.840362 3.601863 5.180549 -15.482286 -2.272634 -28.003923 -0.182653 2.464074 -52.432245 -8.935180 7.294798 11.759917 -23.858007 -11.238474 -1.972413 -18.294441 -5.372389 30.325188 7.877616 4.436426 56.193527 1.549086 7.115997 -18.111301 11.028603 -19.936827 1.447786 11.031164 -10.934161 
-34.157139 32.692879 98.660454 -165.629509 -1.415102 86.348625 3.865845 10.276112 7.159282 -1.814295 18.753722 9.537572 -0.565894 21.462591 -10.944675 nan nan nan -0.272866 -6.529749 -1.337678 4.970404 -13.841410 7.456142 1.789259 -8.936708 -4.339327 nan nan nan 2.219232 1.128898 7.061613 1.070083 -0.593131 7.894963 -0.969497 0.435819 -1.711537 -0.547820 -6.714340 3.528650 5.159149 -15.384227 -2.304195 -28.249895 -0.289319 2.617850 -52.552440 -8.884645 7.389251 11.782624 -24.603854 -11.044413 -1.944259 -18.174777 -5.279596 30.381242 7.713064 4.392266 56.042583 1.585864 7.070659 -18.102487 11.573442 -19.875473 1.629787 11.004060 -10.874661 
-34.105179 32.787102 98.692909 -166.783411 -1.422370 86.447342 3.973583 10.253884 6.465490 -1.468092 19.508323 11.262815 -1.023251 21.549781 -11.152176 nan nan nan -0.093858 -6.375844 -1.140921 4.935700 -13.286445 6.908632 1.750943 -8.555769 -4.092297 nan nan nan 2.335248 1.228382 6.969377 1.135093 -0.744914 8.031163 -0.882131 0.375114 -1.709895 -0.619430 -6.389806 3.495981 5.078783 -15.321029 -2.431651 -28.401576 -0.451224 2.802969 -52.818140 -8.953785 7.381662 11.709650 -24.937564 -10.986841 -2.641524 -18.330079 -5.531690 30.345875 7.660894 4.453705 55.927527 1.637098 7.001064 -18.191919 12.153401 -19.729574 2.229327 10.971852 -10.768437 
-34.009674 32.890526 98.735069 -167.932317 -1.448162 86.517670 4.183688 10.237804 5.824700 -1.231762 20.036573 12.984139 -1.415044 21.518506 -11.353735 nan nan nan 0.056090 -6.172482 -0.917659 4.940916 -12.797224 6.381607 1.751881 -8.194563 -3.883429 nan nan nan 2.228441 1.273545 6.975968 1.247643 -0.839725 8.040827 -0.670051 0.376831 -1.772566 -0.665979 -6.149358 3.627089 4.994089 -15.276282 -2.550996 -28.524017 -0.553219 2.891696 -53.195276 -9.013739 7.415620 11.733878 -25.101946 -11.061269 -3.536960 -18.492085 -5.883636 30.272644 7.730914 4.648121 55.876854 1.638555 6.949518 -18.245144 12.645327 -19.695397 2.733334 10.966429 -10.804696 
-33.883358 33.024586 98.790901 -169.175882 -1.536721 86.556557 4.394894 10.039087 5.350246 -1.180174 20.301775 14.528925 -1.581238 21.488035 -11.470877 nan nan nan 0.183353 -5.954897 -0.690442 4.885971 -12.193227 5.913357 1.650606 -7.886235 -3.634800 nan nan nan 1.972152 1.405521 6.932113 1.402405 -0.856969 8.194228 -0.445330 0.378845 -1.864177 -0.644318 -6.037410 3.701148 4.922569 -15.235454 -2.514696 -28.715993 -0.546134 2.893311 -53.499434 -9.115002 7.482083 11.941268 -25.393219 -11.032573 -4.134402 -18.412396 -5.724871 30.365850 7.698881 4.728212 55.751640 1.603610 7.000755 -18.386095 13.161775 -19.648238 3.175442 10.982912 -10.670069 
-33.774693 33.153053 98.830177 -170.336121 -1.620323 86.586487 4.600691 9.598069 4.794480 -1.112087 20.363086 16.260867 -1.605003 21.436689 -11.407797 nan nan nan 0.268261 -5.720472 -0.411654 4.916494 -11.564369 5.358646 1.441893 -7.638718 -3.341260 nan nan nan 1.837535 1.570943 6.855950 1.533360 -0.984219 8.388312 -0.346849 0.329535 -1.871171 -0.645731 -5.960350 3.672816 4.896627 -15.086178 -2.369535 -28.859798 -0.506363 2.921850 -53.768109 -9.308937 7.609858 12.206786 -25.764340 -10.771009 -4.363940 -18.195905 -5.497043 30.540775 7.558214 4.590188 55.539028 1.612203 7.146712 -18.522279 13.674056 -19.460427 3.601642 10.928804 -10.476705 
-33.695278 33.251373 98.863419 -171.490237 -1.729677 86.648585 4.780794 9.342216 4.148314 -1.015129 20.291610 18.095849 -1.773863 21.338095 -11.386307 nan nan nan 0.231346 -5.619283 -0.217491 5.033944 -10.881528 4.883188 1.283980 -7.328984 -3.127813 nan nan nan 1.847709 1.732742 6.763744 1.569355 -1.171972 8.618524 -0.377909 0.297833 -2.026881 -0.668592 -5.906602 3.768229 4.829693 -14.838734 -2.082778 -28.962504 -0.513516 3.001513 -53.927650 -9.348886 7.885818 12.387017 -26.261959 -10.588705 -4.120904 -18.264802 -5.375292 30.696439 7.492043 4.551285 55.405219 1.580360 7.196526 -18.507084 14.160958 -19.495677 3.693875 11.007278 -10.524253 
-33.612328 33.323280 98.906509 -172.795983 -1.868968 86.818828 4.959908 9.239535 3.396036 -1.022933 20.303160 19.896721 -2.014952 21.267203 -11.386126 nan nan nan 0.125480 -5.688839 -0.267217 5.165313 -10.002598 4.640474 1.264695 -6.875618 -2.917169 nan nan nan 1.825334 1.996437 6.550236 1.566075 -1.265081 8.926598 -0.371860 0.274142 -2.269404 -0.631737 -5.887634 3.894742 4.719608 -14.652895 -1.825213 -29.073285 -0.453929 2.909329 -54.049405 -9.368027 8.182035 12.332565 -26.700842 -10.469310 -3.837794 -18.397847 -5.325200 30.793009 7.310721 4.582824 55.250657 1.652234 7.199423 -18.217004 14.652360 -19.488945 3.518649 11.171423 -10.435522 
-33.801285 33.232353 98.812683 -173.037595 -1.524880 87.423746 5.195290 7.843510 1.525467 -0.469402 20.780959 22.187596 -2.022749 21.134689 -11.215418 nan nan nan 0.193995 -6.232057 -0.902408 5.582088 -9.476623 4.400626 1.330898 -6.655117 -2.658662 nan nan nan 3.186210 2.127043 6.323621 1.350389 -2.023165 8.464211 -0.812933 -0.164589 -2.126789 -0.632251 -5.925363 3.551400 4.490112 -14.615683 -1.175904 -29.109426 -0.231091 2.738643 -54.469862 -9.692828 8.473534 12.171854 -26.886527 -9.728275 -3.719237 -18.480099 -5.795844 30.514281 6.846051 4.493606 55.187697 1.989516 7.394369 -17.893437 15.213866 -18.985914 3.360976 11.175603 -10.490883 
-33.364613 33.418583 98.915443 -175.241734 -1.960665 87.390809 5.558915 9.340997 1.324197 -0.750475 20.313554 23.803698 -2.532826 20.973272 -11.116415 nan nan nan 0.281917 -5.280633 -0.660852 5.177527 -8.747395 4.164664 1.154735 -6.147001 -2.462645 nan nan nan 1.797401 2.196278 6.233509 1.616085 -1.419075 8.905577 -0.428379 0.304454 -2.364720 -0.433712 -5.753725 3.800032 4.587051 -14.522804 -1.154116 -29.017965 -0.205809 2.592172 -54.362432 -9.472747 8.817278 12.188244 -27.452942 -9.353179 -4.182095 -18.496623 -5.192261 31.109943 6.920653 4.585987 54.896308 1.898376 7.308689 -17.837141 15.717811 -18.995098 3.469979 11.226435 -10.328987 
-33.382557 33.572559 98.952477 -176.523792 -2.148874 87.350620 5.652537 8.432386 0.976918 -0.845857 21.072890 25.319689 -2.565971 20.841208 -10.877248 nan nan nan -0.084318 -5.216511 -0.290576 5.448497 -8.129889 3.752506 1.181469 -5.689029 -2.269673 nan nan nan 1.973054 2.490957 6.270710 1.502669 -1.579766 9.016632 -0.547640 0.195123 -2.397836 -0.447735 -5.476785 3.948110 4.462274 -14.457361 -1.089240 -29.131524 0.006729 2.634131 -54.319423 -9.635558 8.731304 11.988098 -28.060856 -8.502316 -4.625001 -18.588486 -5.018226 31.089827 6.700563 4.796894 54.930391 2.155937 7.270161 -17.888256 16.299735 -18.905519 3.762652 11.255577 -10.464191 
-33.318710 33.687626 98.973106 -177.852078 -2.155775 87.419091 5.970395 7.932332 0.386343 -0.880071 21.316732 26.956598 -2.374603 20.577111 -10.584451 nan nan nan -0.121291 -5.127112 -0.142583 5.591575 -7.511893 3.432045 1.270231 -5.247691 -2.054756 nan nan nan 2.121086 2.672345 6.272363 1.491437 -1.594854 9.016186 -0.537952 0.159210 -2.400167 -0.494646 -5.311067 4.082449 4.285270 -14.305645 -0.914034 -29.259442 0.075481 2.758558 -54.323272 -9.717674 8.657575 11.868766 -28.651151 -8.142286 -4.765252 -18.896351 -4.850803 30.968689 6.532010 4.896499 55.017636 2.304061 7.193046 -17.907458 16.899888 -18.875636 3.780480 11.461981 -10.443302 
-33.262920 33.784744 98.983307 -179.161715 -2.229952 87.585850 6.185512 7.729943 -0.403083 -0.888015 21.172244 28.723022 -2.292995 20.192142 -10.302437 nan nan nan -0.234731 -4.859587 -0.122054 5.727527 -7.076935 3.180754 1.373340 -4.794323 -1.913065 nan nan nan 2.150546 2.662877 6.210573 1.473468 -1.464478 8.898510 -0.495594 0.185275 -2.311444 -0.551949 -5.208642 4.052949 4.084381 -14.193617 -0.570974 -29.321632 0.161063 2.997165 -54.430633 -9.825751 8.630346 11.925397 -29.240424 -7.749297 -5.032772 -19.395517 -4.661353 30.831190 6.354804 4.902744 55.109036 2.354562 7.135429 -17.890020 17.547441 -18.722538 3.573739 11.724273 -10.517050 
